<?xml version="1.0" encoding="UTF-8" standalone="no"?>
<svg
   width="16"
   height="16"
   version="1.1"
   id="svg1"
   xmlns="http://www.w3.org/2000/svg"
   xmlns:svg="http://www.w3.org/2000/svg">
  <defs
     id="defs1" />
  <path
     fill="#8eef97"
     d="M 5.5,9 C 4.6715729,9 4,9.6715729 4,10.5 V 12 H 2 v 2 H 14 V 12 H 12 V 10.5 C 12,9.6715729 11.328427,9 10.5,9 Z"
     id="path1" />
  <path
     d="m 8.8526012,1.0132038 0.4750142,1.9017413 0.5811344,0.2358226 1.6743412,-1.0056152 1.190903,1.1909045 -1.007299,1.6793942 0.240876,0.5760811 1.898373,0.4750142 V 7.7509941 H 9.4842691 C 10.105442,6.6282908 9.2934375,5.2510864 8.0103774,5.2510864 c -1.2830601,0 -2.0950646,1.3772044 -1.4738917,2.4999077 H 2.1148109 V 6.0665465 L 4.0182366,5.5915323 4.2523749,5.0120824 3.2467596,3.336057 4.4376641,2.1451525 6.1170583,3.1524522 6.6948239,2.9115762 7.1681536,1.0132038 Z"
     style="fill:#8eef97;stroke-width:0.842224;fill-opacity:1"
     id="path1-8" />
</svg>
