<?xml version="1.0" encoding="UTF-8" standalone="no"?>
<svg
   width="16"
   height="16"
   version="1.1"
   id="svg1"
   xmlns="http://www.w3.org/2000/svg"
   xmlns:svg="http://www.w3.org/2000/svg">
  <defs
     id="defs1" />
  <path
     fill="#8eef97"
     d="M 5.5,9 C 4.6715729,9 4,9.6715729 4,10.5 V 12 H 2 v 2 H 14 V 12 H 12 V 10.5 C 12,9.6715729 11.328427,9 10.5,9 Z"
     id="path1" />
  <path
     fill="#e0e0e0"
     d="M 5.5216883,0.84713609 A 0.99726896,0.99726896 0 0 0 4.5244193,1.844405 v 4.9863448 a 0.99726896,0.99726896 0 0 0 0.997269,0.997269 h 4.9863437 a 0.99726896,0.99726896 0 0 0 0.99727,-0.997269 V 1.844405 A 0.99726896,0.99726896 0 0 0 10.508032,0.84713609 Z M 7.5162262,1.844405 H 8.5134953 V 4.836212 H 7.5162262 Z m 0,3.9890759 H 8.5134953 V 6.8307498 H 7.5162262 Z"
     id="path1-5"
     style="display:inline;fill:#8eef97;fill-opacity:1;stroke-width:0.498634" />
</svg>
